<svg width="260" height="38" viewBox="0 0 260 38" fill="none" xmlns="http://www.w3.org/2000/svg">
<path d="M45.441 0.436035L17.4719 18.9999L12.1881 8.32657C10.3916 4.69833 13.0687 0.436035 17.1196 0.436035H45.441ZM55.1985 18.9999H72.6704L69.6762 12.9411C65.9071 5.29717 58.087 0.436035 49.5624 0.436035H45.441L36.3528 18.9999H55.1985ZM17.4719 18.9999H0L2.99418 25.0587C6.79854 32.7027 14.5834 37.5638 23.1432 37.5638H27.2646L36.3528 18.9999H17.4719ZM55.1985 18.9999L27.2646 37.5638H55.586C59.6369 37.5638 62.2789 33.3015 60.4823 29.6733L55.1985 18.9999Z" fill="#C5FF24"/>
<path d="M88.1699 24.4244H92.6788C92.714 25.3051 93.0663 25.9743 93.6651 26.4323C94.3344 26.8902 95.215 27.1016 96.307 27.1016C97.1172 27.1016 97.7865 26.9607 98.3501 26.6436C98.8785 26.3266 99.1603 25.9039 99.1603 25.3755C99.1603 24.5653 98.2444 23.9665 96.3775 23.579C95.5673 23.4381 94.9685 23.2972 94.581 23.1915C92.2209 22.6279 90.6709 21.9234 89.8608 21.1484C88.9801 20.3383 88.5222 19.2815 88.5222 17.9781C88.5222 16.2873 89.1562 14.9135 90.4596 13.7863C91.7982 12.7648 93.5242 12.2716 95.6377 12.2716C97.9274 12.2716 99.7591 12.7648 101.133 13.7863C102.401 14.8783 103.106 16.3225 103.176 18.119H100.393C99.5478 18.119 98.9137 17.7316 98.4558 16.9918C98.2797 16.8157 98.1035 16.6396 97.9274 16.4634C97.399 16.076 96.6593 15.8646 95.7434 15.8646C94.8628 15.8646 94.1935 16.0055 93.7356 16.2521C93.3481 16.5339 93.1367 16.9214 93.1367 17.4498C93.1367 18.1543 94.2992 18.7531 96.5888 19.2463C96.8706 19.3519 97.082 19.3872 97.2934 19.4576C97.5047 19.4928 97.6808 19.5281 97.857 19.5281C100.111 20.0917 101.697 20.761 102.577 21.5359C103.423 22.3461 103.845 23.4029 103.845 24.7062C103.845 26.6436 103.141 28.1583 101.732 29.2151C100.393 30.2014 98.4206 30.6594 95.7434 30.6594C93.2072 30.6594 91.3402 30.1662 90.1073 29.1446C88.8392 28.1231 88.1699 26.6436 88.1699 24.7062V24.4244Z" fill="#C5FF24"/>
<path d="M115.823 17.5907C115.153 16.6749 114.237 16.1817 113.11 16.1817C111.877 16.1817 110.926 16.6396 110.257 17.5203C109.588 18.4009 109.271 19.6338 109.271 21.1837V30.2719H104.762V7.41052H107.016C107.65 7.41052 108.179 7.62188 108.601 8.07981C109.059 8.53774 109.271 9.06613 109.271 9.66496V14.9136C110.081 13.575 111.208 12.7296 112.652 12.3773C114.096 12.0251 115.506 12.0955 116.844 12.6591C118.077 13.1875 119.134 14.0329 119.979 15.1954C120.825 16.3578 121.247 17.943 121.247 19.9861V30.2719H116.809V21.1133C116.809 20.444 116.738 19.8452 116.633 19.2815C116.492 18.7179 116.245 18.1543 115.823 17.5907Z" fill="#C5FF24"/>
<path d="M124.38 28.6518C123.464 27.8416 122.795 26.7848 122.372 25.4462C121.985 24.1077 121.773 22.6986 121.773 21.2192C121.773 20.0215 121.95 18.8238 122.267 17.6262C122.584 16.4285 123.112 15.4422 123.817 14.632C124.979 13.2934 126.458 12.5184 128.255 12.2719C130.087 12.0253 131.707 12.1662 133.151 12.6946C134.842 13.3639 136.075 14.5263 136.885 16.1467C137.625 17.5909 138.012 19.317 138.012 21.2544C138.012 22.6634 137.872 23.8963 137.554 24.9179C137.237 25.9394 136.85 26.7848 136.357 27.5245C135.3 28.9688 133.926 29.8847 132.306 30.2369C130.862 30.6244 129.382 30.6596 127.903 30.3426C126.423 30.0256 125.261 29.462 124.38 28.6518ZM127.55 16.9921C126.635 18.0136 126.212 19.5283 126.282 21.5362C126.353 23.5441 126.74 24.9531 127.41 25.7633C127.691 26.1155 128.149 26.4326 128.819 26.6439C129.488 26.8905 130.157 26.9257 130.826 26.7144C131.496 26.503 132.13 26.0098 132.658 25.2349C133.187 24.4599 133.468 23.1566 133.539 21.3953C133.539 19.8101 133.292 18.6125 132.764 17.8023C132.271 16.9921 131.672 16.4989 131.003 16.2876C130.333 16.0762 129.664 16.041 128.995 16.2524C128.361 16.4285 127.867 16.6751 127.55 16.9921Z" fill="#C5FF24"/>
<path d="M143.615 12.5887V19.1054L149.251 12.5887H154.816L148.511 19.352L154.887 30.2367H149.321L146.08 24.2484C145.411 23.0507 144.848 22.5575 144.354 22.7337C143.861 22.9098 143.615 23.1916 143.615 23.5438V26.0096V30.2719H138.965V7.41052H141.36C141.994 7.41052 142.523 7.62188 142.945 8.07981C143.403 8.53774 143.615 9.0309 143.615 9.59451V12.5887Z" fill="#C5FF24"/>
<path d="M168.132 24.8121H171.444C170.95 26.679 170.035 28.088 168.661 29.0744C167.287 30.0959 165.561 30.5891 163.483 30.5891C160.946 30.5891 158.974 29.7789 157.565 28.1233C156.156 26.5381 155.451 24.2485 155.451 21.2895C155.451 18.4715 156.12 16.2522 157.494 14.6319C158.903 13.0115 160.876 12.1661 163.412 12.1661C166.054 12.1661 168.132 12.9763 169.577 14.5614C170.986 16.217 171.69 18.4715 171.69 21.3952C171.69 21.5713 171.69 21.7122 171.69 21.8531C171.69 21.994 171.69 22.0645 171.69 22.1349C171.69 22.3463 171.655 22.5224 171.62 22.5929H160.136C160.171 23.9667 160.524 24.9882 161.122 25.6575C161.686 26.362 162.567 26.7142 163.729 26.7142C164.469 26.7142 165.138 26.5733 165.667 26.2563C165.807 26.2211 165.913 26.1506 166.019 26.0097C166.125 25.9041 166.265 25.7632 166.371 25.6575C166.406 25.5166 166.582 25.3404 166.864 25.1291C167.181 24.9177 167.604 24.8121 168.132 24.8121ZM160.171 19.6339H166.935C166.829 18.4362 166.547 17.5556 166.019 16.992C165.455 16.3579 164.61 16.0761 163.553 16.0761C162.567 16.0761 161.792 16.3931 161.158 16.992C160.559 17.5908 160.207 18.4715 160.171 19.6339Z" fill="#C5FF24"/>
<path d="M172.641 30.272V21.6769C172.641 19.9509 172.887 18.5066 173.416 17.3442C173.909 16.1818 174.613 15.2307 175.494 14.5262C176.339 13.8569 177.326 13.3637 178.453 13.0819C179.58 12.7649 180.743 12.624 181.94 12.624C182.046 12.624 182.152 12.624 182.257 12.624C182.363 12.624 182.504 12.624 182.574 12.624V17.3442H181.06C179.791 17.3442 178.84 17.6612 178.206 18.2601C177.572 18.8941 177.29 19.8452 177.29 21.1838V30.272H172.641Z" fill="#C5FF24"/>
<path d="M198.638 12.5887V22.945C198.638 26.0801 197.828 28.1584 196.172 29.1095C194.516 30.0958 192.755 30.5538 190.782 30.5538C188.88 30.4481 187.154 29.9197 185.569 28.9686C183.984 27.9823 183.209 25.9744 183.209 22.9098V12.5887H187.859V23.8609C187.859 24.9177 188.176 25.6926 188.775 26.1858C189.409 26.6789 190.113 26.9255 190.888 26.9255C191.663 26.9255 192.403 26.6789 193.037 26.1858C193.671 25.6926 193.988 24.9177 193.988 23.8609V14.8431C193.988 14.2091 194.199 13.6807 194.622 13.258C195.045 12.8001 195.573 12.5887 196.242 12.5887H198.638Z" fill="#C5FF24"/>
<path d="M200.927 26.6086H203.181V30.2721H199.518V28.0177C199.518 27.0666 199.976 26.6086 200.927 26.6086Z" fill="#C5FF24"/>
<path d="M203.887 7.41052H206.282C206.916 7.41052 207.444 7.62188 207.867 8.07981C208.325 8.53774 208.537 9.06613 208.537 9.66496V11.074H203.887V7.41052ZM203.887 12.5887H206.282C206.916 12.5887 207.444 12.8 207.867 13.258C208.325 13.7159 208.537 14.2443 208.537 14.8431V30.2367H203.887V12.5887Z" fill="#C5FF24"/>
<path d="M224.317 30.2722H221.993C221.323 30.2722 220.795 30.0609 220.372 29.6382C219.95 29.2154 219.738 28.6871 219.738 28.0178V18.9648C219.738 17.908 219.421 17.1331 218.787 16.6399C218.153 16.1468 217.413 15.9002 216.638 15.9002C215.828 15.9002 215.124 16.1468 214.525 16.6399C213.891 17.1331 213.609 17.908 213.609 18.9648V30.237H208.889V19.9159C208.889 16.9217 209.664 14.8786 211.249 13.8571C212.834 12.8355 214.56 12.2719 216.462 12.2015C218.4 12.2015 220.196 12.6946 221.852 13.7162C223.472 14.7377 224.317 16.7808 224.317 19.8807V30.2722Z" fill="#C5FF24"/>
<path d="M226.606 26.6086H228.861V30.2721H225.197V28.0177C225.197 27.0666 225.655 26.6086 226.606 26.6086Z" fill="#C5FF24"/>
<path d="M244.569 12.5887V22.945C244.569 26.0801 243.759 28.1584 242.104 29.1095C240.448 30.0958 238.687 30.5538 236.714 30.5538C234.812 30.4481 233.086 29.9197 231.501 28.9686C229.916 27.9823 229.141 25.9744 229.141 22.9098V12.5887H233.79V23.8609C233.79 24.9177 234.107 25.6926 234.706 26.1858C235.34 26.6789 236.045 26.9255 236.82 26.9255C237.63 26.9255 238.335 26.6789 238.969 26.1858C239.603 25.6926 239.92 24.9177 239.92 23.8609V14.8431C239.92 14.2091 240.131 13.6807 240.554 13.258C240.976 12.8001 241.505 12.5887 242.174 12.5887H244.569Z" fill="#C5FF24"/>
<path d="M256.759 29.5325C255.843 30.0256 254.857 30.3074 253.8 30.4131C252.744 30.5188 251.828 30.5892 251.053 30.5892C249.468 30.5892 248.059 30.1665 246.861 29.2859C245.663 28.4053 245.064 26.9962 245.064 24.9884C245.064 23.1214 245.593 21.8181 246.685 21.0079C247.777 20.1977 249.151 19.6693 250.841 19.4227C251.053 19.4227 251.335 19.3875 251.652 19.3171C251.969 19.2466 252.321 19.2114 252.708 19.1409C254.646 18.8591 255.632 18.2955 255.632 17.4149C255.632 16.7456 255.28 16.3229 254.611 16.1115C253.906 15.9002 253.307 15.8297 252.708 15.8297C252.074 15.8297 251.546 15.9354 251.053 16.1115C250.56 16.2877 250.207 16.6047 249.996 17.0978H245.522C245.699 15.724 246.333 14.5968 247.389 13.7162C248.587 12.6946 250.278 12.2015 252.497 12.2015C254.963 12.2015 256.83 12.6242 258.063 13.4696C259.331 14.3502 260 15.5831 260 17.2035V23.2623C260 25.0236 259.683 26.4326 259.049 27.4189C258.415 28.37 257.64 29.0745 256.759 29.5325ZM255.703 21.3601C255.069 21.6772 254.223 21.959 253.096 22.2408L251.581 22.5578C250.771 22.7692 250.207 23.051 249.855 23.4385C249.538 23.9316 249.397 24.4248 249.397 24.8827C249.397 25.552 249.609 26.0804 249.996 26.4679C250.384 26.8201 250.982 26.9962 251.722 26.9962C252.955 26.9962 253.941 26.644 254.646 25.9395C255.35 25.235 255.703 24.2486 255.703 23.0157V21.3601Z" fill="#C5FF24"/>
</svg>
